HIERARCHY
ROOT Hips
{
	OFFSET 0.00000 0.00000 0.00000
	CHANNELS 6 Xposition Yposition Zposition Yrotation Zrotation Xrotation 
	JOINT Lumbar
	{
		OFFSET 0 0 0
		CHANNELS 3 Zrotation Xrotation Yrotation
		JOINT Neck
		{
			OFFSET 0.00 0.2701 0.00
			CHANNELS 3 Zrotation Xrotation Yrotation
			End Site
			{
				OFFSET 0.00 0.1379 0.00
			}
		}
		JOINT RightShoulder
		{
			OFFSET 0.0119 0.2289 0.1181
			CHANNELS 3 Zrotation Xrotation Yrotation
			JOINT RightElbow
			{
				OFFSET 0.00 -0.1475 0.00
				CHANNELS 2 Zrotation Yrotation
				JOINT RightWrist
				{
					OFFSET 0.00 -0.1605 0.00
					CHANNELS 2 Zrotation Xrotation
					End Site
					{
						OFFSET 0.0040 -0.1068 0.0006
					}
				}
			}
		}
		JOINT LeftShoulder
		{
			OFFSET 0.0119 0.2289 -0.1181
			CHANNELS 3 Zrotation Xrotation Yrotation
			JOINT LeftElbow
			{
				OFFSET 0.00 -0.1475 0.00
				CHANNELS 2 Zrotation Yrotation
				JOINT LeftWrist
				{
					OFFSET 0.00 -0.1605 0.00
					CHANNELS 2 Zrotation Xrotation
					End Site
					{
						OFFSET 0.0040 -0.1068 -0.0006
					}
				}
			}
		}
	}
	JOINT RightHip
	{
		OFFSET 0.0316 -0.0424 0.0458
		CHANNELS 3 Zrotation Xrotation Yrotation
		JOINT RightKnee
		{
			OFFSET 0.00 -0.2438 0.00
			CHANNELS 1 Zrotation
			JOINT RightAnkle
			{
				OFFSET 0.00 -0.2449 0.00
				CHANNELS 3 Zrotation Xrotation Yrotation
				End Site
				{
					OFFSET 0.1237 -0.0542 0.0051
				}
			}
		}
	}
	JOINT LeftHip
	{
		OFFSET 0.0316 -0.0424 -0.0458
		CHANNELS 3 Zrotation Xrotation Yrotation
		JOINT LeftKnee
		{
			OFFSET 0.00 -0.2438 0.00
			CHANNELS 1 Zrotation
			JOINT LeftAnkle
			{
				OFFSET 0.00 -0.2449 0.00
				CHANNELS 3 Zrotation Xrotation Yrotation
				End Site
				{
					OFFSET 0.1237 -0.0542 -0.0051
				}
			}
		}
	}
}
MOTION
Frames: 19
Frame Time: 0.02
-0.00034 -5e-05 -0.00025 -182.10312 -39.33587 -4.17421 47.31842 2.86608 -2.19578 -10.79501 -2.44685 -0.39973 58.33249 -100.76266 55.63528 8.50123 94.25486 5.74594 -1.24062 26.6815 106.32369 -55.62876 7.64432 -90.80923 5.40267 -0.74769 44.95254 -4.65787 -9.9175 -22.02569 -6.92837 -2.06919 -3.27388 48.02288 9.5584 2.62936 -27.12884 -7.18169 2.94494 3.69798
-0.00024 -4e-05 -0.0002 -182.09051 -39.33448 -4.1702 47.30634 2.87457 -2.18531 -10.78425 -2.43913 -0.40065 58.3272 -100.76772 55.63505 8.51161 94.25132 5.76111 -1.23482 26.70372 106.31155 -55.62877 7.64548 -90.78373 5.41092 -0.74753 44.95924 -4.66249 -9.91022 -22.02958 -6.92917 -2.07346 -3.27473 48.02607 9.61037 2.86852 -27.13095 -7.17331 2.92527 3.68578
-0.00015 -4e-05 -0.00014 -182.07795 -39.3331 -4.1662 47.29426 2.88305 -2.17486 -10.77351 -2.43142 -0.40157 58.3221 -100.77272 55.63483 8.52195 94.2478 5.7762 -1.22905 26.72595 106.29943 -55.62878 7.64665 -90.75829 5.41915 -0.74737 44.96594 -4.66711 -9.90299 -22.03347 -6.92997 -2.07773 -3.27557 48.02927 9.6622 3.10702 -27.13307 -7.16496 2.90565 3.67362
-5e-05 -3e-05 -9e-05 -182.06539 -39.33172 -4.1622 47.28221 2.89152 -2.16442 -10.76278 -2.42372 -0.40249 58.31685 -100.77776 55.6346 8.5323 94.24427 5.79132 -1.22327 26.74811 106.28732 -55.62879 7.64781 -90.73286 5.42737 -0.7472 44.97262 -4.67172 -9.89574 -22.03735 -6.93078 -2.08199 -3.27642 48.03245 9.71401 3.34546 -27.13518 -7.15661 2.88605 3.66146
4e-05 -3e-05 -4e-05 -182.05279 -39.33033 -4.15819 47.27018 2.9 -2.15396 -10.75201 -2.41603 -0.40341 58.31138 -100.78287 55.63437 8.54267 94.24073 5.80651 -1.21745 26.77024 106.27522 -55.6288 7.64897 -90.70736 5.43562 -0.74703 44.97929 -4.67632 -9.8884 -22.04123 -6.93158 -2.08627 -3.27727 48.0356 9.76597 3.58453 -27.13729 -7.14824 2.8664 3.64927
0.00014 -2e-05 1e-05 -182.04029 -39.32896 -4.15423 47.25801 2.90848 -2.14356 -10.74136 -2.40825 -0.40433 58.30705 -100.78765 55.63414 8.55296 94.23723 5.82141 -1.21177 26.79266 106.26306 -55.62881 7.65016 -90.68204 5.4438 -0.74691 44.98605 -4.68096 -9.88142 -22.04512 -6.93238 -2.09051 -3.2781 48.0389 9.81752 3.82181 -27.13943 -7.13992 2.84683 3.63715
0.00023 -2e-05 6e-05 -182.02761 -39.32756 -4.15017 47.24612 2.91695 -2.13304 -10.73046 -2.40067 -0.40524 58.30041 -100.79309 55.63391 8.56339 94.23366 5.83687 -1.20583 26.81449 106.25102 -55.62881 7.65127 -90.65641 5.45212 -0.74667 44.99262 -4.68553 -9.87375 -22.04899 -6.93318 -2.09483 -3.27896 48.0419 9.86982 4.06242 -27.14151 -7.1315 2.82713 3.6249
0.00033 -2e-05 0.00011 -182.0151 -39.32619 -4.1462 47.23398 2.92542 -2.12263 -10.71982 -2.3929 -0.40616 58.29593 -100.79792 55.63368 8.57371 94.23014 5.85182 -1.20012 26.83684 106.23887 -55.62882 7.65248 -90.63105 5.46028 -0.74655 44.99937 -4.69016 -9.86666 -22.05288 -6.93399 -2.09907 -3.2798 48.04517 9.92144 4.29998 -27.14364 -7.12318 2.80755 3.61278
0.00042 -1e-05 0.00016 -182.00278 -39.32486 -4.14234 47.22151 2.93395 -2.11236 -10.70939 -2.3849 -0.40708 58.29398 -100.80199 55.63347 8.58386 94.22675 5.86611 -1.1947 26.85991 106.22656 -55.62883 7.65373 -90.60604 5.46838 -0.74656 45.00632 -4.6949 -9.86052 -22.05679 -6.9348 -2.10322 -3.2806 48.0488 9.97222 4.53387 -27.14584 -7.11495 2.78811 3.6008
0.00052 -1e-05 0.00022 -181.98928 -39.32329 -4.13783 47.21084 2.94229 -2.10131 -10.69745 -2.37824 -0.40799 58.27714 -100.81039 55.6332 8.59488 94.22281 5.88409 -1.18765 26.8791 106.2151 -55.62884 7.6545 -90.57908 5.47723 -0.74578 45.01208 -4.69912 -9.84961 -22.0606 -6.93556 -2.1079 -3.2816 48.05047 10.02781 4.78902 -27.14766 -7.10613 2.76785 3.58794
0.00061 -0 0.00026 -181.97833 -39.32223 -4.13469 47.19643 2.95094 -2.09189 -10.68888 -2.36877 -0.40893 58.29192 -100.80971 55.63304 8.6041 94.21991 5.89438 -1.18404 26.9063 106.2019 -55.62886 7.65641 -90.55619 5.48424 -0.74667 45.02036 -4.70434 -9.84831 -22.06459 -6.93644 -2.11146 -3.28219 48.05621 10.07325 4.99919 -27.15026 -7.09857 2.74935 3.57697
0.00072 0 0.00028 -181.97401 -39.32246 -4.13548 47.17127 2.96097 -2.08725 -10.68808 -2.35121 -0.40991 58.39294 -100.78326 55.6332 8.60822 94.22108 5.88263 -1.18983 26.95741 106.18322 -55.62887 7.66054 -90.5451 5.4882 -0.7522 45.03564 -4.7132 -9.87733 -22.06927 -6.93766 -2.11188 -3.28163 48.07362 10.09076 5.08605 -27.15528 -7.09436 2.73532 3.5711
0.00083 1e-05 0.00028 -181.97229 -39.3232 -4.13762 47.14245 2.97119 -2.08423 -10.69096 -2.33092 -0.41092 58.52594 -100.7478 55.63347 8.61056 94.2231 5.86336 -1.19908 27.01625 106.16288 -55.62889 7.66599 -90.538 5.48996 -0.75938 45.0534 -4.72291 -9.9153 -22.0741 -6.93898 -2.11119 -3.28068 48.095 10.09812 5.12777 -27.16104 -7.09141 2.72312 3.56715
0.00093 1e-05 0.00029 -181.96963 -39.32379 -4.13904 47.11563 2.98098 -2.08023 -10.69314 -2.31212 -0.41193 58.64448 -100.71703 55.63367 8.61385 94.22395 5.84816 -1.2068 27.07026 106.14379 -55.62894 7.67142 -90.52866 5.49136 -0.76581 45.07 -4.73168 -9.94652 -22.07876 -6.94023 -2.11104 -3.27993 48.11424 10.11016 5.19002 -27.16628 -7.08795 2.71035 3.5624
0.00104 2e-05 0.00031 -181.96603 -39.32407 -4.14091 47.08737 2.99226 -2.07711 -10.69121 -2.2922 -0.41289 58.76222 -100.68385 55.63394 8.61657 94.22807 5.83014 -1.21441 27.1297 106.12273 -55.62887 7.67439 -90.52109 5.49839 -0.77233 45.08687 -4.7428 -9.9889 -22.08384 -6.94162 -2.11074 -3.27904 48.13496 10.12183 5.25193 -27.17228 -7.08427 2.69655 3.55736
0.00114 2e-05 0.00031 -181.9649 -39.32508 -4.14217 47.06127 3.00042 -2.07272 -10.69873 -2.27404 -0.41396 58.88992 -100.65341 55.6341 8.62002 94.22562 5.81629 -1.223 27.17984 106.10519 -55.62904 7.6828 -90.51083 5.49329 -0.77893 45.10363 -4.74921 -10.01037 -22.08807 -6.94273 -2.11051 -3.27838 48.15348 10.13196 5.30407 -27.17688 -7.08133 2.68525 3.55335
0.00122 2e-05 0.0003 -181.97079 -39.32808 -4.1412 47.0415 3.00029 -2.06304 -10.73122 -2.26086 -0.41528 59.03068 -100.63415 55.63394 8.62642 94.20446 5.81507 -1.23406 27.20119 106.09958 -55.62989 7.70601 -90.49178 5.45376 -0.78666 45.1202 -4.74255 -9.97015 -22.09009 -6.94307 -2.11051 -3.27832 48.16517 10.13955 5.33884 -27.17742 -7.08034 2.68097 3.55195
0.00129 2e-05 0.00028 -181.97886 -39.33155 -4.13957 47.02391 2.99694 -2.0523 -10.77314 -2.24965 -0.41675 59.18143 -100.61777 55.63368 8.63366 94.17671 5.81838 -1.24589 27.21329 106.09725 -55.63094 7.73474 -90.46998 5.40212 -0.79425 45.13616 -4.73114 -9.90898 -22.09122 -6.94311 -2.11065 -3.27851 48.17421 10.14613 5.36586 -27.17653 -7.08002 2.679 3.55148
0.00136 2e-05 0.00027 -181.98543 -39.33503 -4.1384 47.00599 2.99481 -2.04291 -10.81085 -2.23791 -0.41814 59.33211 -100.59907 55.63348 8.64 94.15221 5.82015 -1.25695 27.23028 106.09223 -55.63189 7.7607 -90.4497 5.35732 -0.80097 45.15227 -4.7218 -9.85841 -22.09267 -6.94329 -2.1109 -3.27869 48.1847 10.15361 5.39707 -27.17633 -7.07927 2.6756 3.55043
